<svg xmlns="http://www.w3.org/2000/svg" viewBox="0 0 58.44 13.7"><defs><style>.cls-1{fill:#f6e89a;}.cls-2{fill:#8d4520;}.cls-3{fill:#fff;}.cls-4{isolation:isolate;}</style></defs><g id="图层_2" data-name="图层 2"><g id="图层_1-2" data-name="图层 1"><path class="cls-1" d="M12.3,13.3V6.4A6,6,0,0,0,6.4.4a6,6,0,0,0-5.9,6v6.9c1,0,1.2-1.2,1.9-1.2.9,0,.9,1.2,2.1,1.2,1,0,1-1.2,1.9-1.2s.9,1.2,2,1.2c.9,0,1-1.2,1.9-1.2S11,13.3,12.3,13.3Z"/><path class="cls-2" d="M12.3,13.4a1.89,1.89,0,0,1-1.7-.9c-.2-.3-.2-.3-.3-.3s-.3.1-.5.4a2,2,0,0,1-1.4.8,1.84,1.84,0,0,1-1.6-.9c-.2-.3-.3-.3-.4-.3s-.2.1-.4.3a2,2,0,0,1-1.5.8,2,2,0,0,1-1.6-.8c-.2-.3-.3-.3-.4-.3s-.2.2-.3.3a2.08,2.08,0,0,1-1.6.9V12.2c.3,0,.4-.1.7-.5A1.64,1.64,0,0,1,2.5,11a1.51,1.51,0,0,1,1.3.7c.3.3.4.4.7.4s.3-.1.6-.4a1.57,1.57,0,0,1,1.3-.8,1.67,1.67,0,0,1,1.3.7c.3.3.4.4.7.4s.3-.1.5-.4a2,2,0,0,1,1.4-.8,1.33,1.33,0,0,1,1.2.7.89.89,0,0,0,.8.5Z"/><path class="cls-3" d="M7.4,5.6a1.7,1.7,0,0,0,3.4,0h0A1.69,1.69,0,0,0,9.1,3.9,1.75,1.75,0,0,0,7.4,5.6Z"/><path class="cls-2" d="M9.1,7.6a2,2,0,1,1,2-2A2,2,0,0,1,9.1,7.6Zm0-3.4A1.37,1.37,0,0,0,7.7,5.6a1.4,1.4,0,0,0,2.8,0A1.37,1.37,0,0,0,9.1,4.2Z"/><path class="cls-2" d="M12.8,13.7h-.5a2,2,0,0,1-1.6-.8c-.2-.3-.3-.3-.4-.3s-.4.2-.6.4a1.67,1.67,0,0,1-1.3.7,2,2,0,0,1-1.5-.8c-.2-.3-.3-.4-.5-.4s-.3.1-.5.4a1.77,1.77,0,0,1-1.4.8A2,2,0,0,1,3,12.9a.72.72,0,0,0-.6-.4c-.1,0-.2.1-.4.4a2,2,0,0,1-1.5.8H0V6.4A6.44,6.44,0,0,1,6.4,0a6.44,6.44,0,0,1,6.4,6.4Zm-6.5-2a1.64,1.64,0,0,1,1.2.7.94.94,0,0,0,.9.5c.2,0,.4-.2.6-.4a1.67,1.67,0,0,1,1.3-.7,1.29,1.29,0,0,1,1.1.7,1.76,1.76,0,0,0,.5.4V6.4A5.57,5.57,0,0,0,6.4.8,5.57,5.57,0,0,0,.9,6.4v6.3a1.38,1.38,0,0,0,.3-.4c.3-.3.6-.7,1.1-.7a1.64,1.64,0,0,1,1.2.7c.3.3.4.5.9.5.3,0,.4-.2.7-.5A1.71,1.71,0,0,1,6.3,11.7Z"/><path class="cls-2" d="M9.2,5.6a.4.4,0,0,0,.8,0,.4.4,0,0,0-.8,0Z"/><path class="cls-3" d="M3,5.6a1.7,1.7,0,0,0,3.4,0h0A1.69,1.69,0,0,0,4.7,3.9,1.75,1.75,0,0,0,3,5.6Z"/><path class="cls-2" d="M4.7,7.6a2,2,0,1,1,2-2A2,2,0,0,1,4.7,7.6Zm0-3.4A1.37,1.37,0,0,0,3.3,5.6,1.37,1.37,0,0,0,4.7,7,1.37,1.37,0,0,0,6.1,5.6,1.37,1.37,0,0,0,4.7,4.2Z"/><path class="cls-2" d="M4.8,5.6a.43.43,0,0,0,.4.4c.2,0,.3-.2.3-.4a.43.43,0,0,0-.4-.4C4.9,5.2,4.8,5.4,4.8,5.6Z"/><g class="cls-4"><path class="cls-3" d="M24.37,2.59a8.41,8.41,0,0,1,1.46.14,9.35,9.35,0,0,0,1.61.15l-1.3,3c.17-1.95-.32-2.89-1-2.89-1.45,0-2.35,2.28-2.92,4.55-.51,2.05-.27,3.61,1.14,3.61a2,2,0,0,0,.36,0l.16-.67a8.47,8.47,0,0,0,.39-3.6h2.66a10.62,10.62,0,0,0-1.4,3.6l-.42,1.68h-.81a7.94,7.94,0,0,0-1.07.16l-.2,0a6.54,6.54,0,0,1-1.11.15c-2.92,0-3.42-2.48-2.81-4.92S21.49,2.59,24.37,2.59Z"/><path class="cls-3" d="M27.07,12.1a10.87,10.87,0,0,0,1.41-3.61l.64-2.56a8.61,8.61,0,0,0,.39-3.59h3.17L31.63,6.56a3.53,3.53,0,0,1,2.9-1.88c1.59,0,1.63,1.1,1.36,2.18A11.27,11.27,0,0,1,35.51,8c-.07.21-.15.43-.21.63A8.25,8.25,0,0,0,35,12.1H31.27a9.9,9.9,0,0,0,1.37-3.45l0-.18c.31-1.21.38-2.41,0-2.41s-1.19,1.2-1.49,2.41l-.91,3.63Z"/><path class="cls-3" d="M37.1,8.6a5.12,5.12,0,0,1,4.78-3.85c2.42,0,3.29,1.92,2.81,3.85A5.06,5.06,0,0,1,40,12.45C37.51,12.45,36.62,10.51,37.1,8.6Zm3.08-.18c-.45,1.79-.72,3.64-.2,3.64s1.28-1.81,1.73-3.63c.41-1.65.59-3.31.09-3.31S40.6,6.74,40.18,8.42Z"/><path class="cls-3" d="M47.43,11.7c0,.2.16.33.46.33a1.32,1.32,0,0,0,1.27-1,1.14,1.14,0,0,0-.53-1.19L47.43,9a2,2,0,0,1-.86-2.07c.37-1.49,2.27-2.19,3.91-2.19,1.45,0,2.69.56,2.43,1.61a1.52,1.52,0,0,1-1.53,1c-.71,0-1.08-.38-.92-1.06a.89.89,0,0,1,.32-.48.4.4,0,0,0,.16-.24c.09-.34-.26-.53-.68-.53a1.2,1.2,0,0,0-1.21.76,1,1,0,0,0,.48,1.05l1.56,1a1.88,1.88,0,0,1,1,2.23c-.41,1.6-2.4,2.36-4.1,2.36-1.5,0-2.77-.59-2.49-1.72a1.65,1.65,0,0,1,1.65-1.16c.58,0,1.08.28,1,.84a1.19,1.19,0,0,1-.31.67A2,2,0,0,0,47.43,11.7Z"/><path class="cls-3" d="M55.09,5.52H54.6l.12-.46a3.72,3.72,0,0,0,3.45-2h.21l-.5,2h.56l-.12.46h-.56L56.54,10.4c-.12.49-.11.93.3,1a2.36,2.36,0,0,1-2,1c-.75,0-1.37-.41-1.1-1.52Z"/></g></g></g></svg>