<?xml version="1.0" encoding="utf-8"?>
<!-- Generator: Adobe Illustrator 28.0.0, SVG Export Plug-In . SVG Version: 6.00 Build 0)  -->
<svg version="1.1" id="图层_1" xmlns="http://www.w3.org/2000/svg" xmlns:xlink="http://www.w3.org/1999/xlink" x="0px" y="0px"
	 viewBox="0 0 240 248.1" style="enable-background:new 0 0 240 248.1;" xml:space="preserve">
<style type="text/css">
	.st0{fill-rule:evenodd;clip-rule:evenodd;fill:#FFFFFF;}
	.st1{fill-rule:evenodd;clip-rule:evenodd;}
</style>
<g id="Introduction">
	<g id="variations" transform="translate(-1566.000000, -1082.000000)">
		<g id="images" transform="translate(126.000000, 110.000000)">
			<g id="a-person_x2F_bust" transform="translate(1440.000000, 972.000000)">
				<g id="body_x2F_Macbook" transform="translate(31.056338, 135.052838)">
					<path id="_xD83C__xDFA8_-Background" class="st0" d="M-13.1-0.2c-1.3,0.8-1.2,2.3-0.4,3.2l0,0c0.5,0.4,1,0.7,1.6,0.8
						c1.7,17.7,6.3,35.6,9.3,53.1c-0.7,1-0.5,2.3,0.2,3.3c0,1.1,0.8,2,1.8,2.3l0,0c2,2.1,8.4,7.4,9.9,3c10.9,1.9,22,2.2,33,3.1
						c1.4,6.7-0.7,14.1,2.4,20.2c3.3,5.5,7.7,8.4,7.5,8.5l10.1,2.2c-2.3,0.4-2.3,4,0,4.6c3.8,0.6,7.8-0.4,11.6-0.4
						c29.7-1.5,62.3-0.9,92-2c0-1.4,1.4-3.1,0-5.8c8.3,2.9,19.9,0.6,22.6-7.8c1.3,0.1,3.3-19.2,2.8-27.6c0.6-0.5,1.4-0.8,2.2-1
						c2.3-0.5,2.1-4,0.1-4.5c-0.8-10.3-4.1-20.4-8.1-29.8c-1.1-3.3-1.2-7-2.3-10.3c-8-35.8-24.3-34.3-53.1-47
						c3.2-3-4.6-11.6-5.4-10.7c-0.5-0.1-5.2,0-5.7,0c-4.2-8.2-15.4-8-23.3-6.3C87-47.3,83-39.9,83.3-31.4c-0.4-0.3-6.4,1.4-4.9,3.9
						c-0.7,0.6-1.1,1.5-1.2,2.4c-4.9-0.2-14.5,5.7-18.7,8.6c-2.5,2-3.8,4.8-4.8,7.7c-1.5,4.7-3.1,9.5-5.5,13.9h-0.1
						c-1.3-1.1-2.9,0-4.3,0.1c-0.4-0.4-1.1-0.5-1.5,0.1C28,3.8,13.6,1.5-0.9,0.4c-3-0.3-6-0.6-9.1-0.9C-11.1-0.6-12-0.8-13.1-0.2z"
						/>
					<path id="_xD83D__xDD8D_-Ink" class="st1" d="M118.9-43.3c2.1-0.2,4.3-0.3,6.2,0.4c0.1-0.1,0.6,0.1,0.5,0.2
						c0.6,0.3,1.2,0.7,1.7,1.2c1.1,1.1,2,2.4,2.9,3.7l0.3,0.5c0.5,0.8,1,1.6,1.5,2.4l0.1,0.1c0.4,0.7,0.7,1.4,0,2
						c-0.2,0.2-0.7,0.3-0.9,0.1l0,0h-0.1c-0.1,0.2-0.2,0.3-0.3,0.5c2.9,1.2,5.6,2.6,8.5,3.7c3.2,1.3,6.5,2.5,9.8,3.7l0.3,0.1
						c6.3,2.3,12.8,4.7,18.3,8.7c2.9,2.1,5.5,4.6,7.7,7.6c2.3,3.1,4,6.7,5.5,10.3c3,7.2,5.2,14.8,7.4,22.3l0.6,2.1
						c1.4,4.8,2.7,9.6,3.8,14.4c1.2,4.9,2.5,9.9,3,14.9c0.8,0.9,1,2.1,0.3,3.2c-0.8,1.3-2.3,1.6-3.8,1.7H192c-0.4,0-0.4-0.5-0.1-0.6
						c0.9-0.3,3.8-1.6,2.7-2.9c-0.5,0.1-1.1-0.1-1.4-0.6c-0.6,0-1.3,0.1-1.9,0.2c0.6,4.5,0.7,9,0.7,13.6c0,4.2,0,8.5-1.1,12.7
						c-0.9,3.6-2.6,7-4.9,10c-2.2,2.8-5,5-8.6,5.6c-3.7,0.6-7.4,0.1-11-1c0.1,0.4,0.2,0.8,0.2,1.2c0.2,1.1,0.6,2.7,0.1,3.7
						c-0.3,0.6-1,0.6-1.4,0.2c-0.8-0.7-0.6-2-0.5-3v-0.2c0.1-0.8,0.1-1.6,0-2.4c-3.2-1.1-6.2-2.5-9.1-4l-0.6-0.3
						c-8.2-4.2-16.4-8.5-24.6-12.8l-4.1-2.1c-4.1-2.1-8.2-4.3-12.3-6.4c-0.7,0.1-1.4,0-2.1-0.3s-1.4-0.7-1.8-1.4
						c-0.1-0.1-0.1-0.2-0.1-0.4l-5.4-2.8c-2.1,1-4.3,1.6-6.4,2.5c-2.3,0.9-4.5,2-6.7,2.9c-4.5,1.9-9.1,3.5-14,3.5
						c-0.6,0-0.9-0.3-1.2-0.6c-0.2,0.3-0.5,0.5-0.9,0.5c-3.5-0.1-7-0.4-10.5-0.8l-2.3-0.3c0,0.2,0.1,0.4,0.1,0.7
						c0.1,0.6,0.2,1.2,0.2,1.8c0.2,1.4,0.3,2.8,0.4,4.3c0.1,2.8,0.2,5.5,0.1,8.3c-0.1,2.7-0.4,5.4-0.7,8.1c-0.2,1.4-0.4,2.8-0.6,4.1
						c-0.2,1.3-0.3,2.7-1.3,3.7c-0.5,0.5-1.3,0.2-1.5-0.4c-0.4-1.3,0.1-2.7,0.3-4c-2,0.3-4.7-0.6-6.2-1.1l-0.2-0.1
						c-1.7-0.7-3.1-1.7-4.5-2.8c-1.4-1-2.8-2.1-3.9-3.4c-1.3-1.4-2.1-3-2.4-4.8c-0.2-1.5-0.3-3-0.4-4.5L42,82.2
						c-0.2-3.4-0.1-6.7,0.2-10.1l-25.4-2.9c-4.8-0.5-9.6-0.9-14.4-1.7c-1.9-0.3-3.7-1-5.1-2.4c-1.2-1.3-2-3-2.5-4.7
						c-0.5-1.9-0.8-3.9-1.1-5.8c-0.4-2.4-0.9-4.8-1.3-7.2c-0.8-4.8-1.6-9.5-2.4-14.3c-1.8-10.9-3.4-21.9-5.3-32.8
						c-0.1-0.7,0.3-1.4,1-1.4C4.9-0.6,24.1,1.3,43.1,4.5C44,4.6,44.9,4.8,45.7,5c0.3-1,1-2,1.4-2.8C47.6,1.1,48,0,48.4-1.1l0.3-0.7
						c1-2.8,1.9-5.7,3.3-8.3c1.4-2.7,3.3-4.9,5.8-6.7c2.2-1.6,4.7-2.7,7.2-3.7l0.6-0.2c3.2-1.2,6.5-2.3,9.5-3.8
						c0.2-0.1,0.4,0.2,0.2,0.3c-4.5,3.7-10.1,5.4-14.8,8.8c-2.3,1.7-4.1,3.7-5.5,6.2c-1.3,2.4-2.3,4.8-3.2,7.3l-0.4,1
						c-0.5,1.4-1.1,2.8-1.6,4.1v0.1c-0.3,0.6-0.6,1.5-1,2.2c0.5,0.1,1,0.2,1.5,0.3c2.2,0.4,4.4,0.7,6.6,1.3c1.9,0.5,3.5,1.5,4.5,3.3
						s1.6,4,2.2,6l0.3,0.9c2.8,8.7,5.3,17.5,7.5,26.4c1.3,5.2,2.4,10.3,3.4,15.5c0.1,0.5,0.2,1.1,0.3,1.6c0.7,0.1,1.3,0,2.1-0.2
						l0.5-0.1c0.8-0.2,1.6-0.2,2.3,0.4c0.7-1.1,1.9-2,2.9-2.5c1.5-0.8,3.1-1.3,4.7-1.7l0.8-0.2c1.6-0.4,3.4-0.8,5-0.4
						c0.6,0.1,0.5,0.9,0,1.1c-1,0.3-2.1,0.3-3.1,0.5c-0.9,0.1-1.8,0.3-2.7,0.5C86,58.6,84.4,59,83,59.9c-1.2,0.7-3,2.4-2.4,4
						c0.6,1.6,3.2,0.5,4.4-0.1l0.6-0.3c2.8-1.4,5.9-3.2,9-1.7c1.6,0.8,2.9,1.9,4.6,2.4c1,0.3,2.1,0.6,3.2,0.8
						c0.1-0.5,0.7-0.9,1.3-0.6c3.2,1.6,6.3,3.2,9.4,4.9c0.5,0,1-0.2,1.4-0.5c1.6-1.2,2.4-3.5,2.9-5.3l0.1-0.3c0.6-2.3,1.3-5.1,1-7.5
						c-0.1-0.7-0.3-1.2-0.6-1.7c-1.8-0.5-3.6-0.9-5.4-1.4c-2.8-0.7-5.8-1.3-8.5-2.4c-0.6-0.2-0.6-0.8-0.3-1.2
						c-3.5-1-6.9-2.1-10.3-3.2c-1.3-0.4-2.5-0.8-3.8-1.1L87.1,44c-1.8-0.5-4.9-2-6.1,0.2c-0.2,0.4-0.7,0.5-1.1,0.3
						c-0.6,0.7-1.3,1.4-1.9,2.1c-0.9,0.9-1.9,2.3-3.1,2.5c-0.4,0-0.6-0.4-0.6-0.7c0.1-0.6,0.5-0.9,1-1.3l0.1-0.1
						c0.6-0.5,1.1-1,1.7-1.5c0.8-0.7,1.7-1.4,2.5-2c0.7-1.8,2.8-2.2,4.5-1.9c2.4,0.4,4.8,1.3,7.1,2.1l0.5,0.2
						c4.5,1.5,9.2,3.1,13.5,5.2c2.3,0.4,4.6,1.2,6.9,1.8l3.1,0.8c-0.3-0.2-0.6-0.4-1-0.5c-0.1-0.1-0.1-0.3,0-0.4
						c1.7-1,3.5-0.4,4.9,0.9c0.4,0.4,0.8,0.9,1,1.3c5.1,1.3,10.2,2.7,15.2,4c7,1.9,14,3.8,21,5.7c-0.3-0.8-0.4-1.7-0.5-2.3l-0.1-0.4
						c-0.3-1.3-0.4-2.6-0.6-4l-0.1-0.5c-0.4-2.8-0.7-5.5-0.9-8.3s-0.4-5.7-0.4-8.5c0-1.5,0-2.9,0.1-4.4c0.1-1.3,0.2-2.7,0.8-3.8
						c0.1-0.1,0.2-0.1,0.3,0c0.7,0.9,1,2.1,1.2,3.3l0.1,0.5c0,0.1,0,0.1,0,0.2c0.8-1.6,1.9-3,3.2-4.2c0.1-0.1,0.5,0,0.4,0.2
						c-0.8,1.8-1.6,3.6-2.3,5.6c-0.2,0.7-0.5,1.4-0.6,2.2v0.3c0.4,2.8,0.7,5.7,1,8.6l0.1,0.7c0.3,2.6,0.6,5.2,0.7,7.9
						c0.1,1.4,0.2,2.8,0.3,4.2v0.1c0,1,0.3,2.7-0.3,3.7c0.6,0.2,1.1,0.3,1.7,0.5c-0.2-0.8,0.1-1.8,1-2.1c7.8-3,16-4.7,24.3-5.8
						c1.8-0.2,4.3-1.1,6.4-1c-1.1-3.7-1.8-7.5-2.7-11.2c-1-4.2-2.1-8.5-3.3-12.7c-2.3-8.2-4.7-16.4-7.6-24.5
						c-2.5-7-6-13.7-11.7-18.5c-4.9-4.1-11-6.6-16.9-9l-1-0.4c-3.4-1.3-6.9-2.6-10.3-4.1c-3-1.4-6.4-2.9-8.9-5.2
						c-1.1,1.7-2.4,3.2-3.6,4.8c-1.9,2.7-3.7,5.5-5.2,8.4c-1.5,2.8-2.6,5.8-4,8.6c-0.7,1.4-3.5,6.9-5.4,4.2
						c-0.2-0.2-0.2-0.5-0.1-0.8c-0.4-0.5-0.8-1-1.2-1.5c-0.4-0.6-0.9-1.3-1.3-1.9c-1-1.4-2.1-2.8-3.2-4.2c-1.1-1.3-2.1-2.7-3.2-4
						c-0.5-0.7-1.2-1.4-1.7-2.2c-0.4,1.2-0.3,2.5,0.1,3.9c0.5,2,1.4,3.9,1.1,6c-0.3,1.9-1.6,3.2-3,4.4l0-0.7
						c-1.8,1.5-3.4,3.3-4.5,5.4c-0.6,1.1-1,2.2-1.3,3.4S93,5.9,92.6,7.1c-0.1,0.5-0.9,0.7-1.2,0.2c-0.9-1.8-0.4-4,0.2-5.9l0.1-0.2
						c0.7-2.1,1.9-3.9,3.4-5.6c0.7-0.8,1.4-1.5,2.2-2.1c0.9-0.7,1.9-1.4,2.6-2.3c1.4-1.8,0.4-4.1-0.2-6L99.6-15
						c-0.6-1.9-0.9-3.9-0.1-5.8c0.7-1.8,2.1-3.2,3.6-4.3c1.6-1.2,3.4-2.2,5.2-3.3c2-1.2,3.9-2.6,5.7-4c1.7-1.3,3.3-2.7,4.9-4.2
						c-0.9-0.8-1.5-1.7-2.1-2.8c-0.7-1.2-1.5-2.7-1.7-4.2c-0.3-2.4,2.7-3.2,3.6-1 M45.5,79.9c0.3,1.7,0.6,3.4,0.8,5.1
						c0.2,1.4,0.3,2.9,0.9,4.2c0.5,0.9,1.2,1.7,2,2.5l0.8,0.7c0.9,0.9,1.9,1.8,2.9,2.5c1.1,0.8,2.3,1.5,3.5,2
						c0.8,0.3,2.7,0.9,3.3,0.3c0.2-0.3,0.5-0.4,0.8-0.5v-0.3l0.1-0.5c0.4-2.7,0.6-5.5,0.8-8.2c0.2-2.8,0.3-5.7,0.2-8.5
						c0-1.4-0.1-2.8-0.1-4.2c0-0.3-0.1-0.6-0.1-1L55,73.2c-2.9-0.3-5.9-0.6-8.8-1l-2.7-0.3 M121.2,56.7c0,2.3-0.4,4.7-0.9,7
						c-0.5,2.1-1.3,4.3-2.9,5.9c-0.3,0.3-0.6,0.5-0.9,0.7c11.5,5.9,23,11.9,34.4,17.8c7,3.6,14.2,8,22.3,8.6c1.7,0.1,3.4,0.1,5-0.4
						c1.8-0.5,3.2-1.4,4.5-2.7c2.6-2.4,4.6-5.6,5.9-8.9c1.5-4.1,1.9-8.6,2.1-12.9v-0.7c0.2-3.9,0.2-7.8,0.2-11.8v-2.8l-0.9,0.2
						c-1.1,0.3-2.2,0.6-3.3,0.9c-1.6,0.3-3.2,0.6-4.9,0.9c-6.3,1.3-12.4,3.2-18.4,5.4c0.8,0.2,1.6,0.5,2.5,0.7
						c4.4,1.3,9.1,2.7,12.3,6.2c0.1,0.1-0.1,0.3-0.2,0.2c-3-2.9-7-4.1-10.9-5.1l-0.8-0.2c-5-1.2-10-2.4-15-3.7
						c-10.1-2.6-20.1-5.3-30.2-8l-0.3-0.1 M108.1,74.5l0.3,0.4c0.5,0.7,1,1.5,1.5,2.2c1.2,1.8,2.4,3.6,3.6,5.3
						c2.4,3.6,4.7,7.2,6.7,11c0.4,0.8-0.6,1.7-1.3,1c-2.9-3.2-5.3-6.8-7.4-10.5c-1.1-1.9-2.1-3.7-3.1-5.6c-0.5-1-1-1.9-1.4-2.9v-0.1
						c-0.4-0.8-0.8-1.7-0.8-2.5c0-0.1,0.1-0.2,0.2-0.1 M-8,27.5c1.6,9.4,3,18.8,4.8,28.2v0.1c0.6,3.1,1.4,7,4.9,7.9
						c2,0.6,4.3,0.6,6.4,0.8l35.6,4c5.4,0.6,10.8,1.2,16.1,1.9l0.5,0.1c5.2,0.6,10.4,1.1,15.6,2.2c0.2,0,0.3,0.1,0.5,0.2
						c-1-3.9-2-7.8-2.9-11.8c-1-4.4-2-8.9-3-13.3c-2.2-8.9-4.6-17.8-7.3-26.6c-0.7-2.2-1.4-4.4-2.1-6.6c-0.6-1.9-1.1-4.1-2.9-5.2
						c-1.7-1-4.1-1.2-6-1.5L51,7.6c-1.9-0.4-3.9-0.7-5.8-1C36,5,26.7,3.7,17.3,2.8c-10-1-20.1-1.7-30.2-2 M76.9,72.6
						c0.2-0.1,0.5-0.2,0.8-0.2c4.6,0,9-1.5,13.2-3.2l1.7-0.7c1.7-0.7,3.5-1.3,5.3-1.9c1.7-0.5,3.6-1.1,5.5-1.2l-0.4-0.2
						c-0.1,0-0.1-0.1-0.2-0.1c-0.8,0.1-1.6,0-2.4-0.1c-1.5-0.3-3-0.8-4.4-1.6c-1.7-0.9-3-1.7-5-1.3c-1.7,0.4-3.3,1.3-4.8,2.1
						c-1.9,1-5.9,2.6-6.8-0.6c-0.3-1.1-0.1-2.2,0.5-3.1c-1-0.1-2.9,1.2-4.3,1.3 M91.8,53.8l2.2,0.5c0.1,0,0.1,0.2,0,0.2
						c-2-0.1-4-0.3-5.9-0.6c-1.7-0.2-3.4-0.6-5.2-0.7c-1.6-0.1-2.5,0.7-3.4,1.7l-0.6,0.7c-1,1-2.1,1.8-3.5,1.3
						c-0.5-0.2-0.4-0.9,0.1-1c1.9-0.1,2.8-1.9,4.1-3c1.1-0.9,2.4-1.1,3.7-0.9 M90.7,47.5c2.1,0.4,4.3,0.9,6.2,1.8
						c0.2,0.1,0.1,0.4-0.1,0.4l0,0c-1.9-0.2-3.7-0.7-5.6-1c-2-0.3-4-0.6-6-0.8c-2.1-0.2-3.9-0.4-5.8,0.8c-1.6,1.1-3,2.5-4.9,2.9
						c-0.3,0.1-0.5-0.2-0.4-0.5c1-1.6,2.7-2.7,4.3-3.7l0.3-0.2c1.8-1.1,3.6-1.1,5.6-0.9h0.2 M24.3,27c-0.3,1.6,0.4,3.1,1.5,4.2
						c0.9,0.9,2.5,1.4,3,2.7c0.3,0.7,0,1.4-0.5,1.9c2,1,4,2.8,2.2,5.1c-1.9,2.3-5.8,2.3-8.5,2.1h-0.1c-2.6-0.2-5.8-1.1-7.2-3.5
						C14,38.4,14.1,37,15,36.1c0.6-0.6,1.5-1.2,2.4-1.2c0-0.5,0-1,0.2-1.4C18,32.6,19,32,20,32c-0.1-2,1.6-3.9,2.7-5.5l0.1-0.2
						C23.4,25.6,24.5,26,24.3,27 M21.8,32.7L21.8,32.7c0.4,0.7-0.6,1.5-1.2,0.9l0,0c-0.7-0.7-1.7,0.2-1.7,1c0,1.1,0.7,1.9,1.5,2.4
						l0.1,0.1c0.7,0.4,0.2,1.3-0.6,1.2c-0.9-0.1-1.6-0.8-2.1-1.7c-0.5,0.1-1,0.1-1.5,0.4c-1.3,0.7-0.5,2,0.3,2.7l0.1,0.1
						c1.6,1.3,3.7,1.8,5.7,1.9s4.6,0.1,6.2-1C29.7,40,30,39,29.1,38c-0.5-0.5-1-1.1-1.5-1.6c-0.8,0.4-1.5,0.2-2.3-0.1
						c-0.1,0,0-0.2,0.1-0.2c0.4,0,2.1-0.8,2.1-1.3c0.1-0.5-0.9-0.9-1.3-1.2h-0.1c-0.5-0.3-0.9-0.6-1.3-1c-1-0.9-1.8-2.1-2.1-3.4
						 M151.4,0.3c-0.5,2.7-1,5.4-1.4,8.1c-0.8,5.4-1.6,10.7-2.5,16.1c-0.1,0.8-1.4,0.6-1.4-0.2c0-5.5,0.6-10.9,1.7-16.3
						c0.5-2.7,1.1-5.3,1.8-7.9c0.7-2.5,1.4-5.3,2.7-7.6c0.1-0.1,0.3-0.1,0.3,0.1 M139.1,16.2c0.2,1-1.3,1.5-1.6,0.4
						c-1.7-6.7-0.8-13.9,1.8-20.3c0.1-0.3,0.6-0.2,0.5,0.1 M104.2-4.2c-0.6,0.7-1.4,1.1-2.3,1.3c-0.7,0.2-1.5,0.2-2,0.6
						C99.5-2,99.3-1.5,99-1.1c-0.2,0.3-0.6,0.1-0.8-0.1c-0.5-0.8,0-1.6,0.6-2.1c1-0.8,2.2-0.7,3.2-1.1c2.2-0.9,2.7-3.2,3.9-4.9
						c0.1-0.2,0.4-0.1,0.4,0.1 M86.5-35.5v0.3c0.1,1.4,0,2.7-0.2,4.1s-0.5,2.8-0.9,4.2v0.1c-0.2,0.9-0.5,2.1-1.2,2.7
						c0.7,1.2,1.3,2.5,2,3.8c1.1,2,2.2,4.1,3.9,5.6c1.6,1.4,3.2,2.6,4.3,4.5c0.8,1.4,2.2,4,0.9,5.4c-0.2,0.2-0.5,0.2-0.7,0.1
						c-0.6-0.4-0.9-1.1-1.1-1.8l-0.1-0.4c-0.3-1-0.7-1.9-1.3-2.8c-1.2-1.9-3.1-3-4.5-4.7c-1.3-1.6-2.1-3.4-2.9-5.2L84.5-20
						c-0.5-1.3-1-2.6-1.5-3.9c-0.3,0-0.5-0.2-0.6-0.4c-0.5-0.6-0.3-1.4,0-2.1v-0.1c0-0.1,0-0.3-0.1-0.4c0-0.1,0.2-0.2,0.2-0.1l0,0
						v-0.1c0-0.1,0.1-0.2,0.1-0.2c0.4-1.2,0.8-2.4,1.1-3.6c0.3-1.1,0.5-2.3,0.8-3.4c0.1-0.6,0.3-1.1,0.4-1.7c0-0.1,0.3-1.1,0.4-1.5
						c-0.1-0.1-0.2-0.3,0-0.4c0.1-0.1,0.2-0.2,0.3-0.1 M81.5-29.9l-0.6,0.5c-0.7,0.6-1.7,1.2-2.2,2c-0.5,0.9-0.2,2-0.1,3v0.3
						c0.1,0.9,0.2,1.8,0.3,2.6c0.2,0,0.3,0.1,0.4,0.2c0.8,1.1,1.3,2.4,2.3,3.4c0.8,0.9,1.8,1.8,2.5,2.9c0.9,1.6,1.2,3.4,1.1,5.2
						c0.3-0.3,0.7-0.5,1-0.8l0,0c0.7-0.5,1.7-1.5,2.6-1.3c0.8,0.2,1.4,1.2,1.8,1.8l0.1,0.2c0.7,0.9,1.2,1.9,1.7,3
						c0.1,0.2-0.1,0.3-0.2,0.1c-0.5-0.7-1.1-1.4-1.8-2l0,0c-0.3-0.3-1.3-1.5-1.8-1.4c-0.2,0-0.8,0.7-0.9,0.8l-0.3,0.3
						c-0.2,0.2-0.4,0.4-0.6,0.5c-0.2,0.2-0.5,0.4-0.7,0.6l-1.4,1.2c-0.6,0.5-1.9,0.2-1.8-0.7c0.2-2.4,0.5-5.1-1.2-7.2
						c-1.3-1.6-3.1-3.1-3.7-5.1c-0.5,0.2-1.2,0-1.3-0.7c-0.3-1.3-0.3-2.8-0.4-4.1v-0.1c-0.1-1.1-0.1-2.4,0.4-3.4s1.4-1.6,2.3-2.1
						l0.1-0.1c1.2-0.6,2.4-1.4,3.7-1.7c0.2,0,0.5,0.2,0.3,0.4 M122.6-38.1l-0.5,0.6c-1.4,1.8-3,3.3-4.7,4.8
						c-3.1,2.8-6.7,5.1-10.3,7.3l-1,0.6c-1.5,0.9-3,1.9-4,3.3c-0.2,0.2-0.3,0.4-0.4,0.6c1.1,0.6,2.1,1.8,2.9,2.7l0.4,0.5
						c1.1,1.2,2.2,2.4,3.2,3.7c1.2,1.4,2.3,2.8,3.3,4.2v0.1c0.5,0.6,1.4,1.7,1.8,2.7l0.1-0.1c1-1.2,1.7-2.5,2.4-3.9
						c1.4-2.7,2.5-5.6,4-8.3s3.3-5.3,5.3-7.7c1.3-1.6,5-5.6,5.1-5.7c0.1-0.2,0.3-0.4,0.4-0.6c-0.1-0.2-0.4-0.4-0.4-0.6
						c-0.2-0.3-0.4-0.6-0.5-0.9c-0.4-0.7-0.8-1.4-1.2-2.1c-0.7-1.3-1.5-2.7-2.5-3.8c-0.3-0.3-0.7-0.6-1.1-0.9 M119.5-40.6
						c0.2,0.9,0.5,1.8,0.6,2.7c1.4-1.3,2.7-2.7,4.1-4.1c-1.6-0.5-3.4-0.5-5.1-0.7"/>
				</g>
				<g id="head_x2F_Short-5" transform="translate(78.591549, 38.043053)">
					<path id="_xD83C__xDFA8_-Background_00000097473836102613452240000001947449906878208651_" class="st0" d="M84.8-18.2
						c3.4,4.9,4.4,16.6,3.1,35.2c3.8,1.7,5.7,4.9,5.6,9.7c0,7.1-2.9,11.6-8.7,11.6C72.7,55.6,61.1,62,44.9,62s-24.4-9.4-26.3-20.6
						c-0.5-3.1,1.2-9.1,1.2-12.3c0-15.3,2-37.8,5.7-42.8c4.4-5.9,16.8-15.2,28.8-15.2S79.7-25.5,84.8-18.2z"/>
					<path id="_xD83D__xDD8D_-Ink_00000017498230533857642910000003217680822406015410_" class="st1" d="M70.3-30.9
						c3.2,0.9,6.8,1.9,9.5,3.8c1-1.3,2.7-2.5,4.5-1.9c1.9,0.6,2.2,2.2,1.8,3.9c-0.1,0.4-0.2,0.4-0.1,0.5l0.1,0.1
						c0.4,0.2,0.8,0.2,1.1,0.5c0.6,0.4,1.1,1.1,1.3,1.9c0.4,1.6-0.4,3-1.4,4.2c3.5,5.1,5.5,11.1,6.3,17.2c0.4,3.3,0.5,6.6,0.2,9.9
						c-0.1,1.5-0.3,3.1-0.6,4.6c-0.3,1.3-0.7,2.5-1.2,3.8l0,0l-0.1,0.2c1.7,1.5,2.8,3.8,3.1,6.1c0.5,3.7-0.6,8.3-2.7,11.4
						c-0.6,0.9-1.4,1.7-2.2,2.4c0.3,0.6,0.6,1.3,0.8,1.8l0.1,0.2c0.4,1,0.9,2.3,0.4,3.3c-0.5,1.2-1.8,1.4-2.9,0.9
						c-0.1-0.1-0.3-0.1-0.4-0.2c-0.3,0-0.5,0-0.8-0.1c-0.3,0.9-0.9,1.8-1.6,2.3c-1.4,1-3.5,0.9-5-0.1c-1.5,2.4-3.3,4.5-5.3,6.4l0,0
						c-1.1,1-2.6,2.6-4.2,1.9c-1.5-0.6-1.2-2.4-0.3-3.4c0.9-1,2.2-1.9,3.2-2.9c1.1-1,2.1-2.1,3.1-3.2c1-1.2,2.1-2.4,3.1-3.6
						c0.6-0.6,1.2-1.3,1.7-1.9c0.2-0.3,0.5-0.7,0.7-1l0.3-0.4l-0.1-0.1c-0.4-0.7,0-1.5,0.7-1.8c1.1-0.4,2.3-0.3,3.4-0.7
						c1.1-0.4,1.9-1.3,2.5-2.3c1.4-2.2,2.2-5.2,2.2-7.8c0-2.2-0.9-4.7-2.9-5.9c-0.9-0.5-2.3-0.8-3.6-0.5c-0.5,0.5-1.1,0.9-1.6,1.4
						l0,0l0.1,0.2c0.1,0.1-0.2,0.3-0.2,0.1l0,0l0,0c-0.1,0.2-0.3,0.4-0.4,0.5c-0.6,1-0.8,2-2,2.4c-1.1,0.4-2.1-0.2-3.2-0.3
						c-0.9-0.1-1.3-1.2-1.1-2c0.5-2.4,1-4.8,1.6-7.2l0,0l0.2-0.8c-1.4-2.5-2.8-5-4-7.5c0,0.5-0.1,1-0.1,1.4
						c-0.1,0.8-1.2,1.6-1.9,0.8c-2.2-2.8-4.3-5.5-6.2-8.5C65-2.9,63.9-5,63-7.2c-0.1,0.3-0.2,0.6-0.3,1c-0.4,1-1.3,1.7-2.4,1.4
						c-1-0.3-1.7-1.3-2.2-2.2l-0.5-0.9c-0.3-0.6-0.6-1.2-1-1.8C55-7.6,53-5.9,50.8-4.6c-0.6,0.3-1.5,0.1-1.6-0.7
						c-0.4-1.8-0.7-3.6-1.1-5.5c-3,2.2-6.2,4.2-9.6,5.9c-0.8,0.4-1.7-0.1-1.7-1c0-1.4-0.1-2.9-0.4-4.3c-1.5,1.1-3.1,2-4.9,2.5
						c-1.7,0.5-3.5,0.8-5.3,0.6l0,0L25.9-7l0,0c-0.5,0.2-0.9,0.1-1.2-0.2C23.9-0.8,22.4,5.5,21.9,12c-0.3,3.5-0.4,7.1-0.4,10.6
						c0,1.7,0.1,3.4,0.2,5.1c0.1,1.5,0.4,3,0.5,4.5c0.4,0.4,0.6,1,0.4,1.6c-0.5,1.9-1.4,3.5-1.6,5.5c-0.2,1.9,0,3.9,0.5,5.8
						c0.9,3.7,3.1,7.1,6.1,9.4c6.2,4.9,15,6.7,22.7,5.6c4.5-0.6,8.6-1.9,12.2-4.8c0.1-0.1,0.3,0,0.2,0.1c-5,7.7-14.8,9.6-23.4,8.2
						c-9.2-1.5-18.4-7.3-21.4-16.5c-0.8-2.4-1.2-5.1-0.9-7.6c0.2-2.1,0.6-4.3,1.7-6.2c-0.3-1.7-0.3-3.6-0.4-5.4v-0.6
						c-0.1-1.6-0.1-3.3-0.1-4.9c0-3.6,0.3-7.2,0.7-10.8c0.6-5,1.5-10.2,3.3-15c-0.5-0.1-0.9-0.5-1-1c-0.1-1.5,0.1-3,0.5-4.4
						c-1.1-0.5-2-1.2-2.2-2.5c-0.1-0.6,0-1.3,0.3-1.8c-1.8-1.7-3.3-4.1-3.2-6.4c0.1-1.6,1.2-2.7,2.7-2.9c0.3,0,0.6,0,0.9,0
						c-0.1-0.3-0.3-0.7-0.3-1c-0.3-1.4,0.2-2.9,1.5-3.6c1-0.5,2.2-0.4,3.2,0l0.2,0.1c-0.1-0.2-0.2-0.4-0.4-0.7
						c-0.6-1.1,0.1-2.4,1.4-2.5c3.5-0.2,7-0.5,10.5-0.6c0.1-0.4,0.4-0.8,1-0.9c7.5-1.3,14.9-2,22.5-1.2C63-32.5,66.7-31.9,70.3-30.9
						z M88.4,24.2L88.4,24.2c-0.2-0.4-0.8-0.6-1.1-0.5c-0.2,0-0.3,0.2-0.4,0.3l-0.1,0.1c-0.4,0.4-0.7,0.8-0.9,1.3l-0.1,0.1
						c-0.6,1-1.3,2-2.2,2.7c-1.4,1-3-0.9-2.2-2.2c0.5-0.9,1.4-1.6,2.3-2.3l0.3-0.3c0.7-0.5,1.4-1.1,2.3-1.2c1.3-0.2,2.6,0.6,2.6,2
						C88.8,24.4,88.5,24.4,88.4,24.2z"/>
				</g>
				<g id="face_x2F_Driven" transform="translate(112.183099, 77.354207)">
					<path id="_xD83D__xDD8D_-Ink_00000163781279764292684390000004884835619952906671_" class="st1" d="M-2.1,2.4
						C-2.6,1.8-3,1.2-3,0.4c0-0.5,0.3-1,0.7-1.3s0.9-0.4,1.4-0.3c0.6,0.2,1,0.6,1.5,1c0.4,0.4,0.8,0.7,1.3,1
						c0.8,0.4,1.8,0.6,2.7,0.4C5.5,1,6.5,0.5,7.2-0.1C7.7-0.5,8-1,8.4-1.5c0.2-0.3,0.4-0.6,0.7-0.9c0.1,0,0.1,0.1,0.1,0.1
						c0.4,1.4,0.1,2.7-0.6,3.9C7.8,2.9,6.5,3.9,5.1,4.4C3.6,4.9,1.9,4.7,0.5,4.2C-0.5,3.6-1.4,3.1-2.1,2.4z M1.4-17.1
						c-8.1,1.4-3.9,15.4,6.4,7.7c1.2-1-0.3-3.2-1.6-2.3c-1.4,1.1-4.3,3.5-6.4,1.4c-1.7-2.4,0.7-4.7,2.3-5.6
						C2.6-16.3,2.2-17.3,1.4-17.1z M25-27.7h0.1c1.5,0.7,3.5,1.8,4.5,3.2c0.1,0.1,0,0.2-0.1,0.2c-0.9,0-1.7-0.3-2.6-0.5
						c-1-0.2-2-0.3-3-0.5l-0.7-0.1c-1.7-0.2-3.6-0.4-5.2,0.1c-1.9,0.6-3.5,1.5-5.5,1.8c-2.2,0.4-4.5,0.4-6.7-0.3
						c-3-0.9-1.7-5.5,1.3-4.7c1.9,0.5,3.7,0.8,5.7,0.4c2.1-0.4,4-1.4,6.2-1.3C21.1-29.3,23.1-28.6,25-27.7z M19.7-19.2
						c0,1.4-0.9,4.1-2.7,4.1s-2.1-2.9-2.1-4.3v-0.1c0.1-2.2,0.9-4.3,2.1-4.3C19-23.7,19.7-20.6,19.7-19.2L19.7-19.2L19.7-19.2z
						 M-8.8-19.2c0,1.4,0.9,4.1,2.7,4.1s2.2-3.1,2.1-4.4v-0.2c-0.2-2.1-0.9-4.1-2.1-4.1C-8-23.7-8.8-20.6-8.8-19.2L-8.8-19.2
						L-8.8-19.2z M-8.8-31.1c1.5,0,2.8,0.6,4.2,1.1l0.8,0.3c1,0.4,2.3,0.8,3.2,0.4h0.1c1.2-0.4,2.6,0.6,3,1.7c0.4,1.3-0.4,2.6-1.7,3
						c-2.7,0.8-5.4-0.5-7.8-1.6l-0.7-0.3c-1.9-0.9-4.4-2.5-6.2-0.8c-0.1,0.1-0.2,0-0.2-0.1c0.6-2.3,2.9-3.6,5.2-3.7L-8.8-31.1
						L-8.8-31.1z"/>
				</g>
				<g id="facial-hair_x2F__x2A_-None" transform="translate(104.577451, 109.479380)">
				</g>
				<g id="accessories_x2F__x2A_-None" transform="translate(88.521127, 88.978474)">
				</g>
			</g>
		</g>
	</g>
</g>
</svg>
