<?xml version="1.0" encoding="utf-8"?>
<!-- Generator: Adobe Illustrator 28.0.0, SVG Export Plug-In . SVG Version: 6.00 Build 0)  -->
<svg version="1.1" id="图层_1" xmlns="http://www.w3.org/2000/svg" xmlns:xlink="http://www.w3.org/1999/xlink" x="0px" y="0px"
	 viewBox="0 0 16 16" style="enable-background:new 0 0 16 16;" xml:space="preserve">
<style type="text/css">
	.st0{fill:#B8CBCD;}
	.st1{fill:#F6E89A;}
	.st2{fill:#8D4520;}
	.st3{fill:#FFFFFF;}
</style>
<path class="st0" d="M15.3,14.3c0,0.8-3.1,1.5-7,1.5c-3.9,0-7-0.7-7-1.5c0-0.8,3.2-1.4,7-1.4C12.3,12.9,15.3,13.5,15.3,14.3z"/>
<path class="st1" d="M14,13.5V6.6c0-3.3-2.7-6-5.9-6s-5.9,2.7-5.9,6v6.9c1,0,1.2-1.2,1.9-1.2c0.9,0,0.9,1.2,2.1,1.2
	c1,0,1-1.2,1.9-1.2c0.9,0,0.9,1.2,2,1.2c0.9,0,1-1.2,1.9-1.2C12.8,12.3,12.7,13.5,14,13.5z"/>
<path class="st2" d="M14,13.6c-1,0-1.4-0.5-1.7-0.9c-0.2-0.3-0.2-0.3-0.3-0.3c-0.2,0-0.3,0.1-0.5,0.4c-0.3,0.3-0.7,0.8-1.4,0.8
	c-0.9,0-1.3-0.5-1.6-0.9c-0.2-0.3-0.3-0.3-0.4-0.3c-0.1,0-0.2,0.1-0.4,0.3c-0.3,0.3-0.7,0.8-1.5,0.8c-0.9,0-1.3-0.5-1.6-0.8
	c-0.2-0.3-0.3-0.3-0.4-0.3c-0.1,0-0.2,0.2-0.3,0.3c-0.3,0.3-0.7,0.9-1.6,0.9v-1.2c0.3,0,0.4-0.1,0.7-0.5c0.3-0.3,0.6-0.7,1.2-0.7
	c0.7,0,1.1,0.4,1.3,0.7c0.3,0.3,0.4,0.4,0.7,0.4c0.2,0,0.3-0.1,0.6-0.4c0.2-0.3,0.6-0.8,1.3-0.8c0.7,0,1,0.4,1.3,0.7
	c0.3,0.3,0.4,0.4,0.7,0.4c0.2,0,0.3-0.1,0.5-0.4c0.3-0.3,0.7-0.8,1.4-0.8c0.7,0,1,0.4,1.2,0.7c0.2,0.3,0.4,0.5,0.8,0.5V13.6z"/>
<path class="st3" d="M13.7,5.2c-0.2,0-0.3-0.1-0.4-0.3c-0.7-1.8-2.5-3-4.7-3.2C6.3,1.6,4.1,2.6,3.1,4.4C3,4.6,2.7,4.7,2.5,4.5
	c0,0,0,0,0,0C2.3,4.4,2.2,4.1,2.3,3.9c0,0,0,0,0,0c1.2-2.1,3.7-3.3,6.4-3.1c2.6,0.2,4.5,1.6,5.4,3.8c0.1,0.2,0,0.5-0.2,0.6
	C13.8,5.2,13.8,5.2,13.7,5.2z"/>
<path class="st3" d="M9.1,5.8c0,1,0.8,1.7,1.7,1.7c1,0,1.7-0.8,1.7-1.7c0,0,0,0,0,0c0-1-0.8-1.7-1.7-1.7S9.1,4.9,9.1,5.8
	C9.1,5.8,9.1,5.8,9.1,5.8z"/>
<path class="st2" d="M10.8,7.8c-1.1,0-2-0.9-2-2s0.9-2,2-2c1.1,0,2,0.9,2,2S11.9,7.8,10.8,7.8z M10.8,4.4C10,4.4,9.4,5,9.4,5.8
	s0.6,1.4,1.4,1.4c0.8,0,1.4-0.6,1.4-1.4S11.6,4.4,10.8,4.4z"/>
<path class="st2" d="M14.5,13.9H14c-0.9,0-1.3-0.5-1.6-0.8c-0.2-0.3-0.3-0.3-0.4-0.3c-0.2,0-0.4,0.2-0.6,0.4
	c-0.3,0.3-0.6,0.7-1.3,0.7c-0.8,0-1.2-0.5-1.5-0.8c-0.2-0.3-0.3-0.4-0.5-0.4c-0.2,0-0.3,0.1-0.5,0.4c-0.3,0.3-0.6,0.8-1.4,0.8
	c-0.8,0-1.2-0.5-1.5-0.8c-0.2-0.3-0.4-0.4-0.6-0.4c-0.1,0-0.2,0.1-0.4,0.4c-0.3,0.3-0.7,0.8-1.5,0.8H1.7V6.6c0-3.5,2.9-6.4,6.4-6.4
	s6.4,2.9,6.4,6.4V13.9z M8,11.9c0.6,0,0.9,0.4,1.2,0.7c0.2,0.3,0.4,0.5,0.9,0.5c0.2,0,0.4-0.2,0.6-0.4c0.3-0.3,0.6-0.7,1.3-0.7
	c0.6,0,0.9,0.4,1.1,0.7c0.2,0.2,0.3,0.3,0.5,0.4V6.6c0-3.1-2.5-5.6-5.5-5.6S2.6,3.5,2.6,6.6v6.3c0.1-0.1,0.2-0.2,0.3-0.4
	c0.3-0.3,0.6-0.7,1.1-0.7c0.6,0,0.9,0.4,1.2,0.7c0.3,0.3,0.4,0.5,0.9,0.5c0.3,0,0.4-0.2,0.7-0.5C7,12.3,7.4,11.9,8,11.9z"/>
<path class="st2" d="M10.9,5.8c0,0.2,0.2,0.4,0.4,0.4s0.4-0.2,0.4-0.4s-0.2-0.4-0.4-0.4S10.9,5.6,10.9,5.8z"/>
<path class="st3" d="M4.7,5.8c0,1,0.8,1.7,1.7,1.7c1,0,1.7-0.8,1.7-1.7c0,0,0,0,0,0c0-1-0.8-1.7-1.7-1.7S4.7,4.9,4.7,5.8
	C4.7,5.8,4.7,5.8,4.7,5.8z"/>
<path class="st2" d="M6.4,7.8c-1.1,0-2-0.9-2-2s0.9-2,2-2c1.1,0,2,0.9,2,2S7.5,7.8,6.4,7.8z M6.4,4.4C5.6,4.4,5,5,5,5.8
	s0.6,1.4,1.4,1.4c0.8,0,1.4-0.6,1.4-1.4S7.2,4.4,6.4,4.4z"/>
<path class="st2" d="M6.5,5.8c0,0.2,0.2,0.4,0.4,0.4S7.2,6,7.2,5.8S7,5.4,6.8,5.4S6.5,5.6,6.5,5.8z"/>
</svg>
