<?xml version="1.0" encoding="utf-8"?>
<!-- Generator: Adobe Illustrator 25.3.1, SVG Export Plug-In . SVG Version: 6.00 Build 0)  -->
<svg version="1.1" id="图层_1" xmlns="http://www.w3.org/2000/svg" xmlns:xlink="http://www.w3.org/1999/xlink" x="0px" y="0px"
	 viewBox="0 0 57.5 16" style="enable-background:new 0 0 57.5 16;" xml:space="preserve">
<style type="text/css">
	.st0{fill:#F6E89A;}
	.st1{fill:#8D4520;}
	.st2{fill:#FFFFFF;}
</style>
<g>
	<path class="st0" d="M14,33.3v-6.9c0-3.3-2.7-6-5.9-6s-5.9,2.7-5.9,6v6.9c1,0,1.2-1.2,1.9-1.2c0.9,0,0.9,1.2,2.1,1.2
		c1,0,1-1.2,1.9-1.2s0.9,1.2,2,1.2c0.9,0,1-1.2,1.9-1.2C12.8,32.1,12.7,33.3,14,33.3z"/>
	<path class="st1" d="M14,33.4c-1,0-1.4-0.5-1.7-0.9c-0.2-0.3-0.2-0.3-0.3-0.3c-0.2,0-0.3,0.1-0.5,0.4c-0.3,0.3-0.7,0.8-1.4,0.8
		c-0.9,0-1.3-0.5-1.6-0.9c-0.2-0.3-0.3-0.3-0.4-0.3c-0.1,0-0.2,0.1-0.4,0.3c-0.3,0.3-0.7,0.8-1.5,0.8c-0.9,0-1.3-0.5-1.6-0.8
		c-0.2-0.3-0.3-0.3-0.4-0.3S4,32.4,3.9,32.5c-0.3,0.3-0.7,0.9-1.6,0.9v-1.2c0.3,0,0.4-0.1,0.7-0.5C3.3,31.4,3.6,31,4.2,31
		c0.7,0,1.1,0.4,1.3,0.7c0.3,0.3,0.4,0.4,0.7,0.4c0.2,0,0.3-0.1,0.6-0.4c0.2-0.3,0.6-0.8,1.3-0.8s1,0.4,1.3,0.7
		c0.3,0.3,0.4,0.4,0.7,0.4c0.2,0,0.3-0.1,0.5-0.4c0.3-0.3,0.7-0.8,1.4-0.8s1,0.4,1.2,0.7c0.2,0.3,0.4,0.5,0.8,0.5
		C14,32,14,33.4,14,33.4z"/>
	<path class="st2" d="M9.1,25.6c0,1,0.8,1.7,1.7,1.7c1,0,1.7-0.8,1.7-1.7l0,0c0-1-0.8-1.7-1.7-1.7S9.1,24.7,9.1,25.6L9.1,25.6z"/>
	<path class="st1" d="M10.8,27.6c-1.1,0-2-0.9-2-2s0.9-2,2-2s2,0.9,2,2S11.9,27.6,10.8,27.6z M10.8,24.2c-0.8,0-1.4,0.6-1.4,1.4
		S10,27,10.8,27c0.8,0,1.4-0.6,1.4-1.4C12.2,24.8,11.6,24.2,10.8,24.2z"/>
	<path class="st1" d="M14.5,33.7H14c-0.9,0-1.3-0.5-1.6-0.8c-0.2-0.3-0.3-0.3-0.4-0.3c-0.2,0-0.4,0.2-0.6,0.4
		c-0.3,0.3-0.6,0.7-1.3,0.7c-0.8,0-1.2-0.5-1.5-0.8c-0.2-0.3-0.3-0.4-0.5-0.4s-0.3,0.1-0.5,0.4c-0.3,0.3-0.6,0.8-1.4,0.8
		S5,33.2,4.7,32.9c-0.2-0.3-0.4-0.4-0.6-0.4c-0.1,0-0.2,0.1-0.4,0.4c-0.3,0.3-0.7,0.8-1.5,0.8H1.7v-7.3c0-3.5,2.9-6.4,6.4-6.4
		s6.4,2.9,6.4,6.4V33.7z M8,31.7c0.6,0,0.9,0.4,1.2,0.7c0.2,0.3,0.4,0.5,0.9,0.5c0.2,0,0.4-0.2,0.6-0.4c0.3-0.3,0.6-0.7,1.3-0.7
		c0.6,0,0.9,0.4,1.1,0.7c0.2,0.2,0.3,0.3,0.5,0.4v-6.5c0-3.1-2.5-5.6-5.5-5.6s-5.5,2.5-5.5,5.6v6.3c0.1-0.1,0.2-0.2,0.3-0.4
		C3.2,32,3.5,31.6,4,31.6c0.6,0,0.9,0.4,1.2,0.7c0.3,0.3,0.4,0.5,0.9,0.5c0.3,0,0.4-0.2,0.7-0.5C7,32.1,7.4,31.7,8,31.7z"/>
	<path class="st1" d="M10.9,25.6c0,0.2,0.2,0.4,0.4,0.4s0.4-0.2,0.4-0.4c0-0.2-0.2-0.4-0.4-0.4S10.9,25.4,10.9,25.6z"/>
	<path class="st2" d="M4.7,25.6c0,1,0.8,1.7,1.7,1.7c1,0,1.7-0.8,1.7-1.7l0,0c0-1-0.8-1.7-1.7-1.7S4.7,24.7,4.7,25.6L4.7,25.6z"/>
	<path class="st1" d="M6.4,27.6c-1.1,0-2-0.9-2-2s0.9-2,2-2s2,0.9,2,2S7.5,27.6,6.4,27.6z M6.4,24.2c-0.8,0-1.4,0.6-1.4,1.4
		S5.6,27,6.4,27s1.4-0.6,1.4-1.4C7.8,24.8,7.2,24.2,6.4,24.2z"/>
	<path class="st1" d="M6.5,25.6c0,0.2,0.2,0.4,0.4,0.4s0.3-0.2,0.3-0.4c0-0.2-0.2-0.4-0.4-0.4S6.5,25.4,6.5,25.6z"/>
	<text transform="matrix(1 0 0 1 19.3548 32.1001)" class="st2" style="font-family:'LettownHills-Italic'; font-size:14px;">Ghost</text>
</g>
<g>
	<path class="st0" d="M14,54.6v-6.9c0-3.3-2.7-6-5.9-6s-5.9,2.7-5.9,6v6.9c1,0,1.2-1.2,1.9-1.2c0.9,0,0.9,1.2,2.1,1.2
		c1,0,1-1.2,1.9-1.2s0.9,1.2,2,1.2c0.9,0,1-1.2,1.9-1.2C12.8,53.4,12.7,54.6,14,54.6z"/>
	<path class="st1" d="M14,54.7c-1,0-1.4-0.5-1.7-0.9c-0.2-0.3-0.2-0.3-0.3-0.3c-0.2,0-0.3,0.1-0.5,0.4c-0.3,0.3-0.7,0.8-1.4,0.8
		c-0.9,0-1.3-0.5-1.6-0.9c-0.2-0.3-0.3-0.3-0.4-0.3c-0.1,0-0.2,0.1-0.4,0.3c-0.3,0.3-0.7,0.8-1.5,0.8c-0.9,0-1.3-0.5-1.6-0.8
		c-0.2-0.3-0.3-0.3-0.4-0.3S4,53.7,3.9,53.8c-0.3,0.3-0.7,0.9-1.6,0.9v-1.2c0.3,0,0.4-0.1,0.7-0.5c0.3-0.3,0.6-0.7,1.2-0.7
		c0.7,0,1.1,0.4,1.3,0.7c0.3,0.3,0.4,0.4,0.7,0.4c0.2,0,0.3-0.1,0.6-0.4c0.2-0.3,0.6-0.8,1.3-0.8s1,0.4,1.3,0.7
		c0.3,0.3,0.4,0.4,0.7,0.4c0.2,0,0.3-0.1,0.5-0.4c0.3-0.3,0.7-0.8,1.4-0.8s1,0.4,1.2,0.7c0.2,0.3,0.4,0.5,0.8,0.5
		C14,53.3,14,54.7,14,54.7z"/>
	<path class="st2" d="M9.1,46.9c0,1,0.8,1.7,1.7,1.7c1,0,1.7-0.8,1.7-1.7l0,0c0-1-0.8-1.7-1.7-1.7S9.1,46,9.1,46.9L9.1,46.9z"/>
	<path class="st1" d="M10.8,48.9c-1.1,0-2-0.9-2-2c0-1.1,0.9-2,2-2s2,0.9,2,2C12.8,48,11.9,48.9,10.8,48.9z M10.8,45.5
		c-0.8,0-1.4,0.6-1.4,1.4s0.6,1.4,1.4,1.4c0.8,0,1.4-0.6,1.4-1.4C12.2,46.1,11.6,45.5,10.8,45.5z"/>
	<path class="st1" d="M14.5,55H14c-0.9,0-1.3-0.5-1.6-0.8c-0.2-0.3-0.3-0.3-0.4-0.3c-0.2,0-0.4,0.2-0.6,0.4
		c-0.3,0.3-0.6,0.7-1.3,0.7c-0.8,0-1.2-0.5-1.5-0.8c-0.2-0.3-0.3-0.4-0.5-0.4s-0.3,0.1-0.5,0.4C7.3,54.5,7,55,6.2,55
		S5,54.5,4.7,54.2c-0.2-0.3-0.4-0.4-0.6-0.4c-0.1,0-0.2,0.1-0.4,0.4C3.4,54.5,3,55,2.2,55H1.7v-7.3c0-3.5,2.9-6.4,6.4-6.4
		s6.4,2.9,6.4,6.4V55z M8,53c0.6,0,0.9,0.4,1.2,0.7c0.2,0.3,0.4,0.5,0.9,0.5c0.2,0,0.4-0.2,0.6-0.4c0.3-0.3,0.6-0.7,1.3-0.7
		c0.6,0,0.9,0.4,1.1,0.7c0.2,0.2,0.3,0.3,0.5,0.4v-6.5c0-3.1-2.5-5.6-5.5-5.6s-5.5,2.5-5.5,5.6V54c0.1-0.1,0.2-0.2,0.3-0.4
		c0.3-0.3,0.6-0.7,1.1-0.7c0.6,0,0.9,0.4,1.2,0.7c0.3,0.3,0.4,0.5,0.9,0.5c0.3,0,0.4-0.2,0.7-0.5C7,53.4,7.4,53,8,53z"/>
	<path class="st1" d="M10.9,46.9c0,0.2,0.2,0.4,0.4,0.4s0.4-0.2,0.4-0.4c0-0.2-0.2-0.4-0.4-0.4S10.9,46.7,10.9,46.9z"/>
	<path class="st2" d="M4.7,46.9c0,1,0.8,1.7,1.7,1.7c1,0,1.7-0.8,1.7-1.7l0,0c0-1-0.8-1.7-1.7-1.7S4.7,46,4.7,46.9L4.7,46.9z"/>
	<path class="st1" d="M6.4,48.9c-1.1,0-2-0.9-2-2c0-1.1,0.9-2,2-2s2,0.9,2,2C8.4,48,7.5,48.9,6.4,48.9z M6.4,45.5
		c-0.8,0-1.4,0.6-1.4,1.4s0.6,1.4,1.4,1.4s1.4-0.6,1.4-1.4C7.8,46.1,7.2,45.5,6.4,45.5z"/>
	<path class="st1" d="M6.5,46.9c0,0.2,0.2,0.4,0.4,0.4s0.3-0.2,0.3-0.4c0-0.2-0.2-0.4-0.4-0.4S6.5,46.7,6.5,46.9z"/>
	<text transform="matrix(1 0 0 1 19.3548 53.4399)" style="fill:#231815; font-family:'LettownHills-Italic'; font-size:14px;">Ghost</text>
</g>
</svg>
