<?xml version="1.0" encoding="utf-8"?>
<!-- Generator: Adobe Illustrator 25.3.1, SVG Export Plug-In . SVG Version: 6.00 Build 0)  -->
<svg version="1.1" id="图层_1" xmlns="http://www.w3.org/2000/svg" xmlns:xlink="http://www.w3.org/1999/xlink" x="0px" y="0px"
	 viewBox="0 0 63.3 16" style="enable-background:new 0 0 63.3 16;" xml:space="preserve">
<style type="text/css">
	.st0{fill:#F6E89A;}
	.st1{fill:#8D4520;}
	.st2{fill:#FFFFFF;}
	.st3{enable-background:new    ;}
	.st4{fill:#231815;}
</style>
<g>
	<path class="st0" d="M13,30.6v-6.9c0-3.3-2.7-6-5.9-6s-5.9,2.7-5.9,6v6.9c1,0,1.2-1.2,1.9-1.2c0.9,0,0.9,1.2,2.1,1.2
		c1,0,1-1.2,1.9-1.2s0.9,1.2,2,1.2c0.9,0,1-1.2,1.9-1.2C11.8,29.4,11.7,30.6,13,30.6z"/>
	<path class="st1" d="M13,30.7c-1,0-1.4-0.5-1.7-0.9c-0.2-0.3-0.2-0.3-0.3-0.3c-0.2,0-0.3,0.1-0.5,0.4c-0.3,0.3-0.7,0.8-1.4,0.8
		c-0.9,0-1.3-0.5-1.6-0.9c-0.2-0.3-0.3-0.3-0.4-0.3c-0.1,0-0.2,0.1-0.4,0.3c-0.3,0.3-0.7,0.8-1.5,0.8c-0.9,0-1.3-0.5-1.6-0.8
		c-0.2-0.3-0.3-0.3-0.4-0.3S3,29.7,2.9,29.8c-0.3,0.3-0.7,0.9-1.6,0.9v-1.2c0.3,0,0.4-0.1,0.7-0.5c0.3-0.3,0.6-0.7,1.2-0.7
		c0.7,0,1.1,0.4,1.3,0.7c0.3,0.3,0.4,0.4,0.7,0.4c0.2,0,0.3-0.1,0.6-0.4c0.2-0.3,0.6-0.8,1.3-0.8s1,0.4,1.3,0.7
		c0.3,0.3,0.4,0.4,0.7,0.4c0.2,0,0.3-0.1,0.5-0.4c0.3-0.3,0.7-0.8,1.4-0.8s1,0.4,1.2,0.7c0.2,0.3,0.4,0.5,0.8,0.5
		C13,29.3,13,30.7,13,30.7z"/>
	<path class="st2" d="M8.1,22.9c0,1,0.8,1.7,1.7,1.7c1,0,1.7-0.8,1.7-1.7l0,0c0-1-0.8-1.7-1.7-1.7S8.1,22,8.1,22.9L8.1,22.9z"/>
	<path class="st1" d="M9.8,24.9c-1.1,0-2-0.9-2-2s0.9-2,2-2s2,0.9,2,2S10.9,24.9,9.8,24.9z M9.8,21.5c-0.8,0-1.4,0.6-1.4,1.4
		s0.6,1.4,1.4,1.4c0.8,0,1.4-0.6,1.4-1.4C11.2,22.1,10.6,21.5,9.8,21.5z"/>
	<path class="st1" d="M13.5,31H13c-0.9,0-1.3-0.5-1.6-0.8c-0.2-0.3-0.3-0.3-0.4-0.3c-0.2,0-0.4,0.2-0.6,0.4C10.1,30.6,9.8,31,9.1,31
		c-0.8,0-1.2-0.5-1.5-0.8c-0.2-0.3-0.3-0.4-0.5-0.4s-0.3,0.1-0.5,0.4C6.3,30.5,6,31,5.2,31S4,30.5,3.7,30.2
		c-0.2-0.3-0.4-0.4-0.6-0.4c-0.1,0-0.2,0.1-0.4,0.4C2.4,30.5,2,31,1.2,31H0.7v-7.3c0-3.5,2.9-6.4,6.4-6.4s6.4,2.9,6.4,6.4V31z M7,29
		c0.6,0,0.9,0.4,1.2,0.7c0.2,0.3,0.4,0.5,0.9,0.5c0.2,0,0.4-0.2,0.6-0.4c0.3-0.3,0.6-0.7,1.3-0.7c0.6,0,0.9,0.4,1.1,0.7
		c0.2,0.2,0.3,0.3,0.5,0.4v-6.5c0-3.1-2.5-5.6-5.5-5.6s-5.5,2.5-5.5,5.6V30c0.1-0.1,0.2-0.2,0.3-0.4c0.3-0.3,0.6-0.7,1.1-0.7
		c0.6,0,0.9,0.4,1.2,0.7c0.3,0.3,0.4,0.5,0.9,0.5c0.3,0,0.4-0.2,0.7-0.5C6,29.4,6.4,29,7,29z"/>
	<path class="st1" d="M9.9,22.9c0,0.2,0.2,0.4,0.4,0.4s0.4-0.2,0.4-0.4c0-0.2-0.2-0.4-0.4-0.4S9.9,22.7,9.9,22.9z"/>
	<path class="st2" d="M3.7,22.9c0,1,0.8,1.7,1.7,1.7c1,0,1.7-0.8,1.7-1.7l0,0c0-1-0.8-1.7-1.7-1.7S3.7,22,3.7,22.9L3.7,22.9z"/>
	<path class="st1" d="M5.4,24.9c-1.1,0-2-0.9-2-2s0.9-2,2-2s2,0.9,2,2S6.5,24.9,5.4,24.9z M5.4,21.5c-0.8,0-1.4,0.6-1.4,1.4
		s0.6,1.4,1.4,1.4s1.4-0.6,1.4-1.4C6.8,22.1,6.2,21.5,5.4,21.5z"/>
	<path class="st1" d="M5.5,22.9c0,0.2,0.2,0.4,0.4,0.4s0.3-0.2,0.3-0.4c0-0.2-0.2-0.4-0.4-0.4S5.5,22.7,5.5,22.9z"/>
	<g class="st3">
		<path class="st2" d="M25,19.9c0.6,0,1,0.1,1.5,0.1c0.5,0.1,1,0.2,1.6,0.2l-1.3,3c0.2-2-0.3-2.9-1-2.9c-1.5,0-2.4,2.3-2.9,4.6
			c-0.5,2.1-0.3,3.6,1.1,3.6c0.1,0,0.2,0,0.4,0l0.2-0.7c0.4-1.5,0.6-3.1,0.4-3.6h2.7c-0.5,0.5-1,2.1-1.4,3.6l-0.4,1.7h-0.8
			c-0.2,0-0.6,0.1-1.1,0.2l-0.2,0c-0.4,0.1-0.8,0.2-1.1,0.2c-2.9,0-3.4-2.5-2.8-4.9C20.4,22.3,22.2,19.9,25,19.9z"/>
		<path class="st2" d="M27.7,29.4c0.5-0.5,1-2.1,1.4-3.6l0.6-2.6c0.4-1.5,0.6-3.1,0.4-3.6h3.2l-1.1,4.2C33,22.7,34,22,35.2,22
			c1.6,0,1.6,1.1,1.4,2.2c-0.1,0.4-0.2,0.8-0.4,1.2c-0.1,0.2-0.2,0.4-0.2,0.6c-0.4,1.5-0.6,3-0.4,3.4h-3.7c0.5-0.5,1-2,1.4-3.4
			l0-0.2c0.3-1.2,0.4-2.4,0-2.4c-0.5,0-1.2,1.2-1.5,2.4l-0.9,3.6H27.7z"/>
		<path class="st2" d="M37.8,25.9c0.5-1.9,2.4-3.8,4.8-3.8c2.4,0,3.3,1.9,2.8,3.8c-0.5,1.9-2.3,3.9-4.7,3.9
			C38.2,29.7,37.3,27.8,37.8,25.9z M40.8,25.7c-0.4,1.8-0.7,3.6-0.2,3.6c0.5,0,1.3-1.8,1.7-3.6c0.4-1.7,0.6-3.3,0.1-3.3
			C42,22.4,41.3,24,40.8,25.7z"/>
		<path class="st2" d="M48.1,29c-0.1,0.2,0.2,0.3,0.5,0.3c0.5,0,1.1-0.3,1.3-1c0.1-0.4-0.1-0.9-0.5-1.2l-1.2-0.8
			c-0.7-0.5-1.1-1.3-0.9-2.1c0.4-1.5,2.3-2.2,3.9-2.2c1.5,0,2.7,0.6,2.4,1.6c-0.1,0.5-0.7,1-1.5,1c-0.7,0-1.1-0.4-0.9-1.1
			c0.1-0.2,0.1-0.3,0.3-0.5c0.1-0.1,0.1-0.1,0.2-0.2c0.1-0.3-0.3-0.5-0.7-0.5c-0.5,0-1.1,0.2-1.2,0.8c-0.1,0.4,0,0.8,0.5,1l1.6,1
			c0.7,0.5,1.3,1.1,1,2.2c-0.4,1.6-2.4,2.4-4.1,2.4c-1.5,0-2.8-0.6-2.5-1.7c0.2-0.8,1-1.2,1.6-1.2c0.6,0,1.1,0.3,1,0.8
			c0,0.2-0.2,0.5-0.3,0.7C48.3,28.6,48.1,28.8,48.1,29z"/>
		<path class="st2" d="M55.8,22.8h-0.5l0.1-0.5c1.4,0,2.7-0.6,3.5-2H59l-0.5,2h0.6L59,22.8h-0.6l-1.2,4.9c-0.1,0.5-0.1,0.9,0.3,1
			c-0.3,0.6-1.2,1.1-2,1.1c-0.7,0-1.4-0.4-1.1-1.5L55.8,22.8z"/>
	</g>
</g>
<g>
	<path class="st0" d="M13.3,14.2V7.3c0-3.3-2.7-6-5.9-6S1.5,4,1.5,7.3v6.9c1,0,1.2-1.2,1.9-1.2c0.9,0,0.9,1.2,2.1,1.2
		c1,0,1-1.2,1.9-1.2s0.9,1.2,2,1.2c0.9,0,1-1.2,1.9-1.2C12.1,13,12,14.2,13.3,14.2z"/>
	<path class="st1" d="M13.3,14.3c-1,0-1.4-0.5-1.7-0.9c-0.2-0.3-0.2-0.3-0.3-0.3c-0.2,0-0.3,0.1-0.5,0.4c-0.3,0.3-0.7,0.8-1.4,0.8
		c-0.9,0-1.3-0.5-1.6-0.9c-0.2-0.3-0.3-0.3-0.4-0.3c-0.1,0-0.2,0.1-0.4,0.3c-0.3,0.3-0.7,0.8-1.5,0.8c-0.9,0-1.3-0.5-1.6-0.8
		c-0.2-0.3-0.3-0.3-0.4-0.3s-0.2,0.2-0.3,0.3c-0.3,0.3-0.7,0.9-1.6,0.9v-1.2c0.3,0,0.4-0.1,0.7-0.5c0.3-0.3,0.6-0.7,1.2-0.7
		c0.7,0,1.1,0.4,1.3,0.7C5.1,12.9,5.2,13,5.5,13c0.2,0,0.3-0.1,0.6-0.4c0.2-0.3,0.6-0.8,1.3-0.8s1,0.4,1.3,0.7
		c0.3,0.3,0.4,0.4,0.7,0.4c0.2,0,0.3-0.1,0.5-0.4c0.3-0.3,0.7-0.8,1.4-0.8s1,0.4,1.2,0.7c0.2,0.3,0.4,0.5,0.8,0.5
		C13.3,12.9,13.3,14.3,13.3,14.3z"/>
	<path class="st2" d="M8.4,6.5c0,1,0.8,1.7,1.7,1.7c1,0,1.7-0.8,1.7-1.7l0,0c0-1-0.8-1.7-1.7-1.7S8.4,5.6,8.4,6.5L8.4,6.5z"/>
	<path class="st1" d="M10.1,8.5c-1.1,0-2-0.9-2-2s0.9-2,2-2s2,0.9,2,2S11.2,8.5,10.1,8.5z M10.1,5.1c-0.8,0-1.4,0.6-1.4,1.4
		s0.6,1.4,1.4,1.4c0.8,0,1.4-0.6,1.4-1.4C11.5,5.7,10.9,5.1,10.1,5.1z"/>
	<path class="st1" d="M13.8,14.6h-0.5c-0.9,0-1.3-0.5-1.6-0.8c-0.2-0.3-0.3-0.3-0.4-0.3c-0.2,0-0.4,0.2-0.6,0.4
		c-0.3,0.3-0.6,0.7-1.3,0.7c-0.8,0-1.2-0.5-1.5-0.8c-0.2-0.3-0.3-0.4-0.5-0.4s-0.3,0.1-0.5,0.4c-0.3,0.3-0.6,0.8-1.4,0.8
		S4.3,14.1,4,13.8c-0.2-0.3-0.4-0.4-0.6-0.4c-0.1,0-0.2,0.1-0.4,0.4c-0.3,0.3-0.7,0.8-1.5,0.8H1V7.3c0-3.5,2.9-6.4,6.4-6.4
		s6.4,2.9,6.4,6.4V14.6z M7.3,12.6c0.6,0,0.9,0.4,1.2,0.7c0.2,0.3,0.4,0.5,0.9,0.5c0.2,0,0.4-0.2,0.6-0.4c0.3-0.3,0.6-0.7,1.3-0.7
		c0.6,0,0.9,0.4,1.1,0.7c0.2,0.2,0.3,0.3,0.5,0.4V7.3c0-3.1-2.5-5.6-5.5-5.6S1.9,4.2,1.9,7.3v6.3c0.1-0.1,0.2-0.2,0.3-0.4
		c0.3-0.3,0.6-0.7,1.1-0.7c0.6,0,0.9,0.4,1.2,0.7c0.3,0.3,0.4,0.5,0.9,0.5c0.3,0,0.4-0.2,0.7-0.5C6.3,13,6.7,12.6,7.3,12.6z"/>
	<path class="st1" d="M10.2,6.5c0,0.2,0.2,0.4,0.4,0.4S11,6.7,11,6.5c0-0.2-0.2-0.4-0.4-0.4S10.2,6.3,10.2,6.5z"/>
	<path class="st2" d="M4,6.5c0,1,0.8,1.7,1.7,1.7c1,0,1.7-0.8,1.7-1.7l0,0c0-1-0.8-1.7-1.7-1.7S4,5.6,4,6.5L4,6.5z"/>
	<path class="st1" d="M5.7,8.5c-1.1,0-2-0.9-2-2s0.9-2,2-2s2,0.9,2,2S6.8,8.5,5.7,8.5z M5.7,5.1c-0.8,0-1.4,0.6-1.4,1.4
		s0.6,1.4,1.4,1.4s1.4-0.6,1.4-1.4C7.1,5.7,6.5,5.1,5.7,5.1z"/>
	<path class="st1" d="M5.8,6.5c0,0.2,0.2,0.4,0.4,0.4s0.3-0.2,0.3-0.4c0-0.2-0.2-0.4-0.4-0.4S5.8,6.3,5.8,6.5z"/>
	<g class="st3">
		<path class="st4" d="M25.3,3.5c0.6,0,1,0.1,1.5,0.1c0.5,0.1,1,0.2,1.6,0.2l-1.3,3c0.2-2-0.3-2.9-1-2.9c-1.5,0-2.4,2.3-2.9,4.6
			c-0.5,2.1-0.3,3.6,1.1,3.6c0.1,0,0.2,0,0.4,0l0.2-0.7c0.4-1.5,0.6-3.1,0.4-3.6h2.7c-0.5,0.5-1,2.1-1.4,3.6L26,13h-0.8
			c-0.2,0-0.6,0.1-1.1,0.2l-0.2,0c-0.4,0.1-0.8,0.2-1.1,0.2c-2.9,0-3.4-2.5-2.8-4.9C20.7,5.9,22.4,3.5,25.3,3.5z"/>
		<path class="st4" d="M28,13c0.5-0.5,1-2.1,1.4-3.6l0.6-2.6c0.4-1.5,0.6-3.1,0.4-3.6h3.2l-1.1,4.2c0.7-1.1,1.7-1.9,2.9-1.9
			c1.6,0,1.6,1.1,1.4,2.2c-0.1,0.4-0.2,0.8-0.4,1.2c-0.1,0.2-0.2,0.4-0.2,0.6c-0.4,1.5-0.6,3-0.4,3.4h-3.7c0.5-0.5,1-2,1.4-3.4
			l0-0.2c0.3-1.2,0.4-2.4,0-2.4c-0.5,0-1.2,1.2-1.5,2.4L31.2,13H28z"/>
		<path class="st4" d="M38.1,9.5c0.5-1.9,2.4-3.8,4.8-3.8c2.4,0,3.3,1.9,2.8,3.8c-0.5,1.9-2.3,3.9-4.7,3.9
			C38.5,13.3,37.6,11.4,38.1,9.5z M41.1,9.3c-0.4,1.8-0.7,3.6-0.2,3.6c0.5,0,1.3-1.8,1.7-3.6C43.1,7.7,43.3,6,42.8,6
			C42.3,6,41.6,7.6,41.1,9.3z"/>
		<path class="st4" d="M48.4,12.6c-0.1,0.2,0.2,0.3,0.5,0.3c0.5,0,1.1-0.3,1.3-1c0.1-0.4-0.1-0.9-0.5-1.2l-1.2-0.8
			c-0.7-0.5-1.1-1.3-0.9-2.1c0.4-1.5,2.3-2.2,3.9-2.2c1.5,0,2.7,0.6,2.4,1.6c-0.1,0.5-0.7,1-1.5,1c-0.7,0-1.1-0.4-0.9-1.1
			c0.1-0.2,0.1-0.3,0.3-0.5c0.1-0.1,0.1-0.1,0.2-0.2c0.1-0.3-0.3-0.5-0.7-0.5c-0.5,0-1.1,0.2-1.2,0.8c-0.1,0.4,0,0.8,0.5,1l1.6,1
			c0.7,0.5,1.3,1.1,1,2.2c-0.4,1.6-2.4,2.4-4.1,2.4c-1.5,0-2.8-0.6-2.5-1.7c0.2-0.8,1-1.2,1.6-1.2c0.6,0,1.1,0.3,1,0.8
			c0,0.2-0.2,0.5-0.3,0.7C48.6,12.2,48.4,12.4,48.4,12.6z"/>
		<path class="st4" d="M56.1,6.4h-0.5l0.1-0.5c1.4,0,2.7-0.6,3.5-2h0.2l-0.5,2h0.6l-0.1,0.5h-0.6l-1.2,4.9c-0.1,0.5-0.1,0.9,0.3,1
			c-0.3,0.6-1.2,1.1-2,1.1c-0.7,0-1.4-0.4-1.1-1.5L56.1,6.4z"/>
	</g>
</g>
</svg>
